<?xml version="1.0" standalone="no"?><!DOCTYPE svg PUBLIC "-//W3C//DTD SVG 1.1//EN" "http://www.w3.org/Graphics/SVG/1.1/DTD/svg11.dtd"><svg t="1680932686675" class="icon" viewBox="0 0 1250 1024" version="1.1" xmlns="http://www.w3.org/2000/svg" p-id="4527" xmlns:xlink="http://www.w3.org/1999/xlink" width="244.140625" height="200"><path d="M1075.211485 407.337017c-10.183425-36.207735-47.522652-57.706077-83.730387-48.088398l-156.711602 40.733701-4.525967-16.972375 179.907182-48.088398c19.801105-5.091713 31.116022-25.458564 26.02431-44.693923v-0.565746l-9.051934-32.813259c-4.525967-15.840884-19.235359-27.155801-35.641989-27.155801-3.394475 0-6.223204 0.565746-9.61768 1.131491l-179.341436 48.088398-2.828729-10.749171 179.907182-47.522652c19.801105-5.091713 31.116022-25.458564 26.024309-44.693923V175.381215l-9.051933-32.813259c-4.525967-15.840884-19.235359-27.155801-35.641989-27.155801-3.394475 0-6.223204 0.565746-9.61768 1.131491L771.40596 164.066298l-2.82873-10.749171 179.341437-48.088398c19.801105-5.091713 31.116022-25.458564 26.024309-44.693922v-0.565746l-9.051933-32.81326c-3.960221-15.840884-18.669613-27.155801-35.076243-27.155801-3.394475 0-6.223204 0.565746-9.61768 1.131492l-181.038674 48.654143c-2.828729 0.565746-5.091713 1.697238-7.920442 2.82873-11.880663-3.960221-24.892818 2.262983-28.853039 14.143646-1.131492 3.960221-1.697238 8.486188-0.565746 13.012155l88.8221 330.961326L718.791595 429.966851c-36.207735 9.61768-58.271823 46.956906-48.654144 83.730387l20.366851 75.244198c7.920442 29.98453 35.076243 50.351381 66.192266 50.351382 6.223204 0 11.880663-0.565746 17.538121-2.262984l73.546961-19.235359c10.183425-2.262983 16.972376-13.012155 14.709393-23.19558-2.262983-10.183425-12.446409-16.972376-22.629835-14.709392l-13.5779-51.482873c-3.394475-11.880663-15.840884-19.235359-27.721547-15.840884-11.880663 3.394475-19.235359 15.840884-15.840884 27.721547l13.5779 50.917127-31.681767 7.920442c-15.840884 3.960221-31.681768-5.091713-36.207735-20.932597L708.042424 503.513812c-3.960221-15.840884 5.091713-31.681768 20.932597-35.641989l83.730386-21.498342c3.960221 1.131492 7.354696 1.131492 11.314917 0 3.394475-1.131492 6.78895-2.828729 9.61768-5.657459l3.960221-1.131492 14.143646 53.180111c3.960221 11.880663 16.40663 18.103867 28.287293 14.709392 10.749171-3.394475 17.538122-14.709392 15.275138-26.024309l-14.143646-52.614365 120.503867-31.681768c15.840884-3.960221 31.681768 5.091713 36.207735 20.932597l19.801105 75.244199c3.960221 15.840884-5.091713 31.681768-20.932597 35.641989-10.183425 2.828729-16.40663 13.577901-14.143646 23.761326 2.828729 10.183425 13.577901 16.40663 23.761326 14.143646 17.538122-4.525967 32.81326-15.840884 41.865193-31.681768 9.051934-15.840884 11.880663-34.510497 6.788951-52.048619L1075.211485 407.337017z m-89.953592-130.121547l4.525967 16.406629-164.632044 44.128177-4.525967-16.40663 164.632044-44.128176z m-31.116022-114.846409l4.525967 16.40663-164.632044 44.128176-4.525967-16.406629 164.632044-44.128177z m-30.550276-115.412155l4.525967 16.40663-164.632044 44.128177-4.525967-16.40663 164.632044-44.128177z" fill="#e89abe" p-id="4528"></path><path d="M900.961761 603.085083c1.697238 0 3.394475 0 5.091713-0.565746l74.112707-19.235359c10.183425-2.828729 16.40663-13.577901 13.5779-23.761326-2.828729-10.183425-13.577901-16.40663-23.761326-14.143646l-74.112707 19.235359c-10.183425 2.828729-16.40663 13.577901-14.143646 23.761326 2.828729 9.051934 10.749171 14.709392 19.235359 14.709392zM1175.914247 370.563536c-11.880663 3.394475-19.235359 15.840884-15.840884 27.721547l11.880663 43.562431c3.394475 11.880663 15.840884 19.235359 27.721547 15.840884s19.235359-15.840884 15.840884-27.721547l-11.880663-43.562431c-3.394475-12.446409-15.840884-19.235359-27.721547-15.840884zM812.705407 704.353591l-217.812154-126.161326c-1.697238-1.131492-3.394475-1.697238-5.657459-2.262983 1.697238-1.697238 3.394475-3.394475 4.525967-5.657459L718.791595 353.025414c27.721547-48.088398 11.314917-110.320442-36.773481-138.041989-48.088398-27.721547-109.754696-11.314917-137.476243 36.773481v0.565746L419.512037 469.003315c-1.131492 2.262983-2.262983 4.525967-2.828729 6.78895-1.697238-1.697238-3.394475-2.828729-5.091713-3.960221L193.77944 346.236464c-48.088398-27.721547-109.754696-11.314917-137.476243 36.773481v0.565746c-27.721547 48.088398-11.314917 109.754696 36.773481 138.041989l222.338122 128.424309L186.99049 872.38011c-27.721547 48.088398-11.314917 109.754696 36.773481 138.041989 15.275138 9.051934 32.81326 13.577901 50.351381 13.577901 9.051934 0 17.538122-1.131492 26.024309-3.394475 26.024309-6.78895 48.088398-23.761326 61.100553-46.956906l128.424309-222.903868 222.338122 128.42431c48.088398 27.721547 109.754696 11.314917 137.476243-36.773481 27.721547-48.088398 11.314917-109.754696-36.773481-138.041989z m-229.127072-429.401105c15.275138-26.590055 49.21989-35.641989 75.809945-20.366851 26.590055 15.275138 35.641989 49.21989 20.366851 75.809945l-105.794475 183.301658c-23.761326-29.98453-58.271823-49.785635-96.176796-55.443094l105.794475-183.301658z m-277.781215 316.81768L115.706512 482.01547c-26.590055-15.275138-35.641989-49.21989-20.366851-75.809945 7.354696-13.012155 19.801105-22.064088 33.944752-26.02431 4.525967-1.131492 9.61768-1.697238 14.143646-1.697237 9.61768 0 19.235359 2.828729 27.721547 7.354696l186.130387 107.491713c-28.853039 24.892818-47.522652 59.969061-51.482873 98.439779z m16.972376 359.248619c-15.275138 26.590055-49.21989 35.641989-75.244199 20.36685h-0.565746c-26.590055-15.275138-35.641989-49.21989-20.366851-75.809944l111.451934-192.919337c23.761326 29.98453 58.271823 49.785635 96.176795 55.443094L322.769496 951.018785z m168.026519-243.270719c-5.657459 2.262983-11.880663 3.960221-18.103867 4.525967H469.863418c-47.522652 6.223204-93.348066-20.366851-111.451933-64.495027-2.828729-6.78895-4.525967-13.577901-6.223205-20.932597-4.525967-24.892818-0.565746-50.917127 12.446409-72.981216 10.749171-18.669613 26.590055-33.379006 45.825414-42.430939 10.183425-5.091713 20.932597-7.920442 31.681768-9.617679 47.522652-6.223204 93.348066 20.366851 110.886188 65.060773 4.525967 10.183425 7.354696 20.932597 7.920442 32.247514 3.960221 48.654144-24.892818 92.78232-70.152486 108.623204z m319.646409 112.01768c-15.275138 26.590055-49.21989 35.641989-75.809945 20.366851l-190.090608-109.754696c31.116022-22.629834 52.048619-56.574586 59.403315-94.479558l186.130387 107.491712c26.590055 15.840884 35.641989 49.785635 20.366851 76.375691z" fill="#e89abe" p-id="4529"></path><path d="M434.787175 528.972376a82.033149 82.033149 0 0 0-57.706077 100.702762c9.61768 35.641989 41.865193 60.534807 79.20442 60.534807 7.354696 0 14.143646-1.131492 21.498342-2.82873 44.128177-10.183425 71.283978-54.311602 61.100553-98.439779s-54.311602-71.283978-98.439779-61.100552c-2.828729 0-4.525967 0.565746-5.657459 1.131492z m62.79779 103.531491c-6.223204 11.314917-16.972376 19.235359-29.418784 22.629835-25.458564 6.78895-52.048619-8.486188-59.403315-33.944752-6.78895-26.024309 8.486188-52.614365 34.510497-59.403315 3.960221-1.131492 8.486188-1.697238 12.446409-1.697237 22.064088 0 41.299448 14.709392 46.956906 35.641989 2.828729 12.446409 1.131492 25.458564-5.091713 36.77348zM1244.935242 673.803315c-9.61768-3.394475-18.669613-7.920442-27.155802-14.143646-5.657459-7.920442-10.183425-16.40663-13.012154-25.458564-1.697238-4.525967-6.78895-6.78895-11.314917-5.091713-2.262983 1.131492-4.525967 2.828729-5.091713 5.091713-2.828729 9.61768-7.354696 18.103867-13.577901 26.024309-7.920442 6.223204-16.40663 10.749171-26.024309 13.577901-4.525967 1.697238-6.78895 6.78895-5.091713 11.314917 1.131492 2.262983 2.828729 3.960221 5.091713 5.091713 9.051934 2.828729 17.538122 7.354696 25.458564 13.5779 6.223204 7.920442 10.749171 16.972376 13.5779 26.590056 1.697238 4.525967 6.78895 6.78895 11.314917 5.091712 2.262983-1.131492 4.525967-2.828729 5.091713-5.091712 2.828729-9.051934 6.78895-16.972376 12.446409-24.327072 8.486188-6.78895 17.538122-11.880663 27.721547-14.709393 4.525967-1.697238 6.78895-6.78895 5.091712-11.314917 0-3.394475-2.262983-5.657459-4.525966-6.223204zM328.426954 239.876243c8.486188 2.828729 16.972376 7.354696 23.761326 13.012155 5.657459 7.354696 10.183425 15.840884 13.012155 24.892817 1.697238 4.525967 6.223204 6.78895 10.749171 5.091713 2.262983-1.131492 3.960221-2.828729 5.091713-5.091713 2.262983-8.486188 6.78895-16.40663 11.880663-23.19558 7.920442-6.223204 16.972376-10.749171 26.024309-14.143646 4.525967-1.697238 6.78895-6.223204 5.091713-10.749171-1.131492-2.262983-2.828729-3.960221-5.091713-5.091713-9.051934-2.828729-18.103867-7.354696-25.458563-13.577901-5.657459-7.354696-9.61768-15.275138-12.446409-23.761326-1.697238-4.525967-6.223204-6.78895-10.749171-5.091712-2.262983 0.565746-3.960221 2.828729-5.091713 5.091712-2.828729 9.051934-7.354696 16.972376-13.012155 24.327072-7.354696 5.657459-15.275138 10.183425-24.327072 13.012155-4.525967 1.697238-6.223204 6.78895-5.091712 10.749171 1.697238 1.697238 3.394475 3.394475 5.657458 4.525967zM832.506512 947.058564c-7.920442-2.262983-15.840884-6.223204-22.629834-11.314918-5.091713-5.657459-9.051934-13.012155-11.314917-20.36685-1.697238-3.960221-6.223204-5.657459-10.183426-3.960221-1.697238 0.565746-3.394475 2.262983-3.960221 3.960221-2.262983 7.354696-6.223204 14.143646-11.314917 20.36685-6.78895 5.091713-14.143646 8.486188-22.064088 10.749172-3.394475 1.131492-5.657459 5.091713-4.525967 8.486188 0.565746 2.262983 2.262983 3.960221 4.525967 4.525966 7.920442 2.262983 14.709392 5.657459 21.498342 10.749172 5.091713 6.223204 9.051934 13.012155 11.880663 20.932596 1.697238 3.960221 6.223204 5.657459 10.183426 3.960221 1.697238-0.565746 2.828729-2.262983 3.960221-3.960221 2.262983-6.78895 6.223204-13.577901 10.749171-19.235359 7.354696-5.091713 14.709392-9.051934 23.19558-11.880663 3.394475-1.131492 5.657459-5.091713 4.525967-8.486188 0-2.262983-2.262983-3.960221-4.525967-4.525966zM85.721982 833.909392c-7.920442-2.262983-15.840884-6.223204-22.629834-11.314917-5.091713-5.657459-9.051934-13.012155-11.314918-20.366851-1.697238-3.960221-6.223204-5.657459-10.183425-3.960221-1.697238 0.565746-3.394475 2.262983-3.960221 3.960221-2.262983 7.354696-6.223204 14.143646-11.314917 20.366851-6.78895 5.091713-14.143646 8.486188-21.498343 10.749171-3.394475 1.131492-5.657459 5.091713-4.525966 8.486188 0.565746 2.262983 2.262983 3.960221 4.525966 4.525967 7.920442 2.262983 14.709392 5.657459 21.498343 10.749171 5.091713 6.223204 9.051934 13.012155 11.880663 20.932597 1.697238 3.960221 6.223204 5.657459 10.183425 3.960221 1.697238-0.565746 2.828729-2.262983 3.960221-3.960221 2.262983-7.354696 5.657459-13.577901 10.749172-19.235359 7.354696-5.091713 14.709392-9.051934 23.19558-11.880663 3.394475-1.131492 5.657459-5.091713 4.525967-8.486188-1.131492-2.262983-2.828729-3.960221-5.091713-4.525967zM984.692148 831.646409c-9.61768 0-16.972376 7.354696-16.972376 16.972376s7.354696 16.972376 16.972376 16.972375 16.972376-7.354696 16.972375-16.972375-7.354696-16.972376-16.972375-16.972376zM608.471153 124.464088c7.920442 0 14.143646-6.223204 14.143647-14.143646s-6.223204-14.143646-14.143647-14.143646-14.143646 6.223204-14.143646 14.143646 6.223204 14.143646 14.143646 14.143646zM500.97944 927.823204c-4.525967 0-8.486188 3.960221-8.486187 8.486188s3.960221 8.486188 8.486187 8.486188 8.486188-3.960221 8.486188-8.486188-3.960221-8.486188-8.486188-8.486188zM113.443529 277.21547c9.61768 0 16.972376-7.354696 16.972376-16.972376s-7.354696-16.972376-16.972376-16.972376-16.972376 7.354696-16.972376 16.972376 7.354696 16.972376 16.972376 16.972376zM158.703197 661.922652c-9.61768 0-16.972376 7.354696-16.972375 16.972376s7.354696 16.972376 16.972375 16.972375 16.972376-7.354696 16.972376-16.972375-7.354696-16.972376-16.972376-16.972376zM1160.073363 299.845304c0 9.61768 7.354696 16.972376 16.972376 16.972376s16.972376-7.354696 16.972375-16.972376-7.354696-16.972376-16.972375-16.972376-16.972376 7.354696-16.972376 16.972376zM628.272258 322.475138c9.61768 0 16.972376-7.354696 16.972376-16.972376s-7.354696-16.972376-16.972376-16.972375-16.972376 7.354696-16.972376 16.972375 7.354696 16.972376 16.972376 16.972376zM897.00154 695.867403c-7.920442 0-14.143646 6.223204-14.143647 14.143647s6.223204 14.143646 14.143647 14.143646 14.143646-6.223204 14.143646-14.143646-6.223204-14.143646-14.143646-14.143647zM1154.415905 83.730387c7.354696-5.091713 14.709392-9.051934 23.19558-11.880663 3.394475-1.131492 5.657459-5.091713 4.525966-8.486188-0.565746-2.262983-2.262983-3.960221-4.525966-4.525967-7.920442-2.262983-15.840884-6.223204-22.629835-11.314917-5.091713-5.657459-9.051934-13.012155-11.314917-20.366851-1.697238-3.960221-6.223204-5.657459-10.183425-3.960221-1.697238 0.565746-3.394475 2.262983-3.960221 3.960221-2.262983 7.354696-6.223204 14.143646-11.314917 20.366851-6.78895 5.091713-14.143646 8.486188-22.064089 10.749171-3.394475 1.131492-5.657459 5.091713-4.525967 8.486188 0.565746 2.262983 2.262983 3.960221 4.525967 4.525967 7.920442 2.262983 14.709392 5.657459 21.498343 10.749171 5.091713 6.223204 9.051934 13.012155 11.880663 20.932597 1.697238 3.960221 6.223204 5.657459 10.183425 3.960221 1.697238-0.565746 2.828729-2.262983 3.960221-3.960221 2.262983-7.354696 6.223204-13.577901 10.749172-19.235359z" fill="#e89abe" p-id="4530"></path></svg>